<svg width="300" height="300" viewBox="0 0 300 300" fill="none" xmlns="http://www.w3.org/2000/svg">
<rect width="300" height="300" rx="60" fill="#111827"/>
<path d="M63.8687 130.576C61.2767 130.576 58.8607 130.16 56.6207 129.328C54.4127 128.464 52.4927 127.248 50.8607 125.68C49.2287 124.112 47.9487 122.272 47.0207 120.16C46.1247 118.048 45.6767 115.728 45.6767 113.2C45.6767 110.672 46.1247 108.352 47.0207 106.24C47.9487 104.128 49.2287 102.288 50.8607 100.72C52.5247 99.152 54.4607 97.952 56.6687 97.12C58.8767 96.256 61.2927 95.824 63.9167 95.824C66.8287 95.824 69.4527 96.336 71.7887 97.36C74.1567 98.352 76.1407 99.824 77.7407 101.776L72.7487 106.384C71.5967 105.072 70.3167 104.096 68.9087 103.456C67.5007 102.784 65.9647 102.448 64.3007 102.448C62.7327 102.448 61.2927 102.704 59.9807 103.216C58.6687 103.728 57.5327 104.464 56.5727 105.424C55.6127 106.384 54.8607 107.52 54.3167 108.832C53.8047 110.144 53.5487 111.6 53.5487 113.2C53.5487 114.8 53.8047 116.256 54.3167 117.568C54.8607 118.88 55.6127 120.016 56.5727 120.976C57.5327 121.936 58.6687 122.672 59.9807 123.184C61.2927 123.696 62.7327 123.952 64.3007 123.952C65.9647 123.952 67.5007 123.632 68.9087 122.992C70.3167 122.32 71.5967 121.312 72.7487 119.968L77.7407 124.576C76.1407 126.528 74.1567 128.016 71.7887 129.04C69.4527 130.064 66.8127 130.576 63.8687 130.576ZM98.6087 130.576C95.9527 130.576 93.4887 130.144 91.2167 129.28C88.9767 128.416 87.0247 127.2 85.3607 125.632C83.7287 124.064 82.4487 122.224 81.5207 120.112C80.6247 118 80.1767 115.696 80.1767 113.2C80.1767 110.704 80.6247 108.4 81.5207 106.288C82.4487 104.176 83.7447 102.336 85.4087 100.768C87.0727 99.2 89.0247 97.984 91.2647 97.12C93.5047 96.256 95.9367 95.824 98.5607 95.824C101.217 95.824 103.649 96.256 105.857 97.12C108.097 97.984 110.033 99.2 111.665 100.768C113.329 102.336 114.625 104.176 115.553 106.288C116.481 108.368 116.945 110.672 116.945 113.2C116.945 115.696 116.481 118.016 115.553 120.16C114.625 122.272 113.329 124.112 111.665 125.68C110.033 127.216 108.097 128.416 105.857 129.28C103.649 130.144 101.233 130.576 98.6087 130.576ZM98.5607 123.952C100.065 123.952 101.441 123.696 102.689 123.184C103.969 122.672 105.089 121.936 106.049 120.976C107.009 120.016 107.745 118.88 108.257 117.568C108.801 116.256 109.073 114.8 109.073 113.2C109.073 111.6 108.801 110.144 108.257 108.832C107.745 107.52 107.009 106.384 106.049 105.424C105.121 104.464 104.017 103.728 102.737 103.216C101.457 102.704 100.065 102.448 98.5607 102.448C97.0567 102.448 95.6647 102.704 94.3847 103.216C93.1367 103.728 92.0327 104.464 91.0727 105.424C90.1127 106.384 89.3607 107.52 88.8167 108.832C88.3047 110.144 88.0487 111.6 88.0487 113.2C88.0487 114.768 88.3047 116.224 88.8167 117.568C89.3607 118.88 90.0967 120.016 91.0247 120.976C91.9847 121.936 93.1047 122.672 94.3847 123.184C95.6647 123.696 97.0567 123.952 98.5607 123.952ZM122.789 130V96.4H129.221L143.525 120.112H140.117L154.181 96.4H160.565L160.661 130H153.365L153.317 107.584H154.661L143.429 126.448H139.925L128.453 107.584H130.085V130H122.789ZM168.632 130V96.4H176.408V130H168.632ZM184.382 130V96.4H190.814L210.638 120.592H207.518V96.4H215.198V130H208.814L188.942 105.808H192.062V130H184.382ZM239.372 130.576C236.716 130.576 234.268 130.16 232.028 129.328C229.82 128.464 227.884 127.248 226.22 125.68C224.588 124.112 223.308 122.272 222.38 120.16C221.484 118.048 221.036 115.728 221.036 113.2C221.036 110.672 221.484 108.352 222.38 106.24C223.308 104.128 224.604 102.288 226.268 100.72C227.932 99.152 229.884 97.952 232.124 97.12C234.364 96.256 236.828 95.824 239.516 95.824C242.492 95.824 245.164 96.32 247.532 97.312C249.932 98.304 251.948 99.744 253.58 101.632L248.588 106.24C247.372 104.96 246.044 104.016 244.604 103.408C243.164 102.768 241.596 102.448 239.9 102.448C238.268 102.448 236.78 102.704 235.436 103.216C234.092 103.728 232.924 104.464 231.932 105.424C230.972 106.384 230.22 107.52 229.676 108.832C229.164 110.144 228.908 111.6 228.908 113.2C228.908 114.768 229.164 116.208 229.676 117.52C230.22 118.832 230.972 119.984 231.932 120.976C232.924 121.936 234.076 122.672 235.388 123.184C236.732 123.696 238.204 123.952 239.804 123.952C241.34 123.952 242.828 123.712 244.268 123.232C245.74 122.72 247.164 121.872 248.54 120.688L252.956 126.304C251.132 127.68 249.004 128.736 246.572 129.472C244.172 130.208 241.772 130.576 239.372 130.576ZM245.852 125.296V112.672H252.956V126.304L245.852 125.296ZM62.2616 200.84C58.3416 200.84 54.5849 200.327 50.9916 199.3C47.3982 198.227 44.5049 196.85 42.3116 195.17L46.1616 186.63C48.2616 188.123 50.7349 189.36 53.5816 190.34C56.4749 191.273 59.3916 191.74 62.3316 191.74C64.5716 191.74 66.3682 191.53 67.7216 191.11C69.1216 190.643 70.1482 190.013 70.8016 189.22C71.4549 188.427 71.7816 187.517 71.7816 186.49C71.7816 185.183 71.2682 184.157 70.2416 183.41C69.2149 182.617 67.8616 181.987 66.1816 181.52C64.5016 181.007 62.6349 180.54 60.5816 180.12C58.5749 179.653 56.5449 179.093 54.4916 178.44C52.4849 177.787 50.6416 176.947 48.9616 175.92C47.2816 174.893 45.9049 173.54 44.8316 171.86C43.8049 170.18 43.2916 168.033 43.2916 165.42C43.2916 162.62 44.0382 160.077 45.5316 157.79C47.0716 155.457 49.3582 153.613 52.3916 152.26C55.4716 150.86 59.3216 150.16 63.9416 150.16C67.0216 150.16 70.0549 150.533 73.0416 151.28C76.0282 151.98 78.6649 153.053 80.9516 154.5L77.4516 163.11C75.1649 161.803 72.8782 160.847 70.5916 160.24C68.3049 159.587 66.0649 159.26 63.8716 159.26C61.6782 159.26 59.8816 159.517 58.4816 160.03C57.0816 160.543 56.0782 161.22 55.4716 162.06C54.8649 162.853 54.5616 163.787 54.5616 164.86C54.5616 166.12 55.0749 167.147 56.1016 167.94C57.1282 168.687 58.4816 169.293 60.1616 169.76C61.8416 170.227 63.6849 170.693 65.6916 171.16C67.7449 171.627 69.7749 172.163 71.7816 172.77C73.8349 173.377 75.7016 174.193 77.3816 175.22C79.0616 176.247 80.4149 177.6 81.4416 179.28C82.5149 180.96 83.0516 183.083 83.0516 185.65C83.0516 188.403 82.2816 190.923 80.7416 193.21C79.2016 195.497 76.8916 197.34 73.8116 198.74C70.7782 200.14 66.9282 200.84 62.2616 200.84ZM114.6 200.84C110.727 200.84 107.134 200.21 103.82 198.95C100.554 197.69 97.7069 195.917 95.2802 193.63C92.9002 191.343 91.0336 188.66 89.6802 185.58C88.3736 182.5 87.7202 179.14 87.7202 175.5C87.7202 171.86 88.3736 168.5 89.6802 165.42C91.0336 162.34 92.9236 159.657 95.3502 157.37C97.7769 155.083 100.624 153.31 103.89 152.05C107.157 150.79 110.704 150.16 114.53 150.16C118.404 150.16 121.95 150.79 125.17 152.05C128.437 153.31 131.26 155.083 133.64 157.37C136.067 159.657 137.957 162.34 139.31 165.42C140.664 168.453 141.34 171.813 141.34 175.5C141.34 179.14 140.664 182.523 139.31 185.65C137.957 188.73 136.067 191.413 133.64 193.7C131.26 195.94 128.437 197.69 125.17 198.95C121.95 200.21 118.427 200.84 114.6 200.84ZM114.53 191.18C116.724 191.18 118.73 190.807 120.55 190.06C122.417 189.313 124.05 188.24 125.45 186.84C126.85 185.44 127.924 183.783 128.67 181.87C129.464 179.957 129.86 177.833 129.86 175.5C129.86 173.167 129.464 171.043 128.67 169.13C127.924 167.217 126.85 165.56 125.45 164.16C124.097 162.76 122.487 161.687 120.62 160.94C118.754 160.193 116.724 159.82 114.53 159.82C112.337 159.82 110.307 160.193 108.44 160.94C106.62 161.687 105.01 162.76 103.61 164.16C102.21 165.56 101.114 167.217 100.32 169.13C99.5736 171.043 99.2002 173.167 99.2002 175.5C99.2002 177.787 99.5736 179.91 100.32 181.87C101.114 183.783 102.187 185.44 103.54 186.84C104.94 188.24 106.574 189.313 108.44 190.06C110.307 190.807 112.337 191.18 114.53 191.18ZM173.663 200.84C169.789 200.84 166.196 200.21 162.883 198.95C159.616 197.69 156.769 195.917 154.343 193.63C151.963 191.343 150.096 188.66 148.743 185.58C147.436 182.5 146.783 179.14 146.783 175.5C146.783 171.86 147.436 168.5 148.743 165.42C150.096 162.34 151.986 159.657 154.413 157.37C156.839 155.083 159.686 153.31 162.953 152.05C166.219 150.79 169.766 150.16 173.593 150.16C177.466 150.16 181.013 150.79 184.233 152.05C187.499 153.31 190.323 155.083 192.703 157.37C195.129 159.657 197.019 162.34 198.373 165.42C199.726 168.453 200.403 171.813 200.403 175.5C200.403 179.14 199.726 182.523 198.373 185.65C197.019 188.73 195.129 191.413 192.703 193.7C190.323 195.94 187.499 197.69 184.233 198.95C181.013 200.21 177.489 200.84 173.663 200.84ZM173.593 191.18C175.786 191.18 177.793 190.807 179.613 190.06C181.479 189.313 183.113 188.24 184.513 186.84C185.913 185.44 186.986 183.783 187.733 181.87C188.526 179.957 188.923 177.833 188.923 175.5C188.923 173.167 188.526 171.043 187.733 169.13C186.986 167.217 185.913 165.56 184.513 164.16C183.159 162.76 181.549 161.687 179.683 160.94C177.816 160.193 175.786 159.82 173.593 159.82C171.399 159.82 169.369 160.193 167.503 160.94C165.683 161.687 164.073 162.76 162.673 164.16C161.273 165.56 160.176 167.217 159.383 169.13C158.636 171.043 158.263 173.167 158.263 175.5C158.263 177.787 158.636 179.91 159.383 181.87C160.176 183.783 161.249 185.44 162.603 186.84C164.003 188.24 165.636 189.313 167.503 190.06C169.369 190.807 171.399 191.18 173.593 191.18ZM208.925 200V151H218.305L247.215 186.28H242.665V151H253.865V200H244.555L215.575 164.72H220.125V200H208.925Z" fill="white"/>
</svg>
