<svg width="169" height="200" viewBox="0 0 169 200" fill="none" xmlns="http://www.w3.org/2000/svg">
<path d="M118.203 199.824C118.457 199.858 118.966 199.928 119.367 200H38.3389C40.7319 200 42.533 199.912 43.7421 199.748C45.1489 199.466 46.4186 198.716 47.3443 197.62C48.5408 196.36 49.1454 194.534 49.1454 192.141L49.0572 180.994C49.012 174.622 48.9871 169.446 48.9824 165.447L48.9833 165.3C48.9833 164.984 48.9827 164.672 48.9816 164.366L48.9816 164.117C48.9741 162.654 48.9567 161.307 48.9402 160.023V160.021C48.8821 155.516 48.8341 151.793 49.2993 146.59L49.3091 146.585C50.2915 139.28 52.9616 133.637 57.332 129.708C51.669 129.153 46.0565 128.167 40.543 126.761C35.1624 125.282 29.9877 123.137 25.1394 120.375C20.0668 117.613 15.5863 113.882 11.9526 109.392C8.46379 105.022 5.59214 99.2913 3.35029 92.2003C1.12095 85.0967 0 76.8975 0 67.615C0 54.403 4.30745 43.1558 12.935 33.8606C8.90464 23.9359 9.28245 12.7894 14.0811 0.458926C17.255 -0.536085 21.9529 0.207046 28.1748 2.66309C34.3967 5.11913 38.9561 7.22237 41.8529 8.96051C44.7497 10.7239 47.0672 12.1974 48.8179 13.3938C59.0573 10.5444 69.6389 9.1119 80.2673 9.13691C91.0863 9.13691 101.565 10.56 111.729 13.3938L117.951 9.46427C122.737 6.59091 127.785 4.17853 133.027 2.26004C138.821 0.0686005 143.229 -0.52336 146.302 0.458926C151.214 12.8019 151.643 23.9359 147.6 33.8733C156.227 43.1558 160.547 54.403 160.547 67.6275C160.547 76.91 159.426 85.1345 157.184 92.2757C154.955 99.4297 152.058 105.16 148.507 109.481C144.809 113.912 140.31 117.608 135.244 120.375C129.954 123.322 124.816 125.451 119.841 126.761C114.327 128.172 108.715 129.161 103.052 129.72C104.356 130.851 105.51 132.131 106.515 133.561C107.28 134.65 107.958 135.825 108.55 137.088H153.42C154.676 137.088 155.881 137.576 156.77 138.444C157.658 139.312 158.157 140.489 158.157 141.716C158.157 142.944 157.658 144.121 156.77 144.989C155.881 145.858 154.676 146.345 153.42 146.345H111.146C111.426 148.414 111.566 150.622 111.566 152.971V154.794H153.42C154.676 154.794 155.881 155.282 156.77 156.15C157.658 157.018 158.157 158.195 158.157 159.423C158.157 160.65 157.658 161.828 156.77 162.696C155.881 163.564 154.676 164.051 153.42 164.051H111.566V172.5H128.153C129.409 172.5 130.614 172.988 131.503 173.856C132.391 174.724 132.891 175.901 132.891 177.129C132.891 178.357 132.391 179.534 131.503 180.402C130.614 181.27 129.409 181.758 128.153 181.758H111.566V192.141C111.566 193.992 111.83 195.491 112.384 196.637C112.639 197.189 113.002 197.685 113.452 198.094C113.902 198.503 114.43 198.817 115.004 199.017C115.139 199.065 115.272 199.111 115.403 199.155C116.447 199.505 117.375 199.734 118.203 199.824Z" fill="#FAFAFA"/>
<path d="M167.285 170.126C168.172 170.994 168.671 172.171 168.671 173.397C168.671 174.624 168.172 175.8 167.285 176.668L155.188 190.554C154.3 191.421 153.096 191.908 151.841 191.908C150.585 191.908 149.381 191.421 148.493 190.554L140.597 182.84C140.131 182.416 139.758 181.905 139.499 181.337C139.24 180.769 139.101 180.156 139.09 179.535C139.079 178.913 139.196 178.296 139.434 177.72C139.672 177.143 140.027 176.62 140.477 176.18C140.926 175.741 141.462 175.394 142.052 175.162C142.642 174.929 143.274 174.814 143.91 174.825C144.546 174.836 145.174 174.972 145.755 175.225C146.336 175.478 146.859 175.843 147.293 176.298L151.841 180.741L160.589 170.126C161.478 169.26 162.682 168.773 163.937 168.773C165.193 168.773 166.397 169.26 167.285 170.126Z" fill="#FAFAFA"/>
</svg>
