<svg width="167" height="200" viewBox="0 0 167 200" fill="none" xmlns="http://www.w3.org/2000/svg">
<path fill-rule="evenodd" clip-rule="evenodd" d="M81.648 185.292C76.999 186.312 72.1699 186.849 67.2157 186.849C30.0935 186.849 0 156.698 0 119.504C0 82.3115 30.0935 52.1605 67.2157 52.1605C104.338 52.1605 134.431 82.3115 134.431 119.504C134.431 121.182 134.37 122.843 134.25 124.489L105.891 130.994C106.967 127.353 107.545 123.496 107.545 119.504C107.545 97.1889 89.489 79.0981 67.2157 79.0981C44.9424 79.0981 26.8863 97.1889 26.8863 119.504C26.8863 141.82 44.9424 159.911 67.2157 159.911C70.1069 159.911 72.9271 159.606 75.6458 159.027L81.648 185.292Z" fill="#EA4335"/>
<path d="M26.9532 0H0V117.972H26.9532V0Z" fill="#FBBC05"/>
<path d="M133.11 105.991H105.329V200H133.11V105.991Z" fill="#4285F4"/>
<path d="M134.1 126.24C134.32 124.025 134.432 121.778 134.432 119.505C134.432 82.312 104.338 52.161 67.2162 52.161C52.0845 52.161 38.1207 57.1707 26.8867 65.6249V117.619C26.8867 117.819 26.8935 118.018 26.907 118.215C27.5871 96.4959 45.3738 79.0986 67.2162 79.0986C89.4895 79.0986 107.545 97.1889 107.545 119.505C107.545 121.8 107.355 124.05 106.988 126.24H134.1Z" fill="#34A853"/>
<path d="M165.889 106.036H71.7861V132.974H165.889V106.036Z" fill="#4285F4"/>
<path fill-rule="evenodd" clip-rule="evenodd" d="M41.8052 88.1263L26.8867 65.9121V117.619C26.8867 117.728 26.8887 117.836 26.8928 117.944L26.9169 117.928C27.3774 105.903 33.0824 95.2258 41.8052 88.1263Z" fill="#FBBC05"/>
</svg>
