<svg width="200" height="200" viewBox="0 0 200 200" fill="none" xmlns="http://www.w3.org/2000/svg">
<path fill-rule="evenodd" clip-rule="evenodd" d="M0.812205 100C0.812207 88.0982 8.90668 77.241 22.8798 71.3685L26.3172 69.9239L0.423604 8.31177C-0.531252 6.03977 0.183663 3.48389 2.0106 2.01051C3.48399 0.183638 6.03983 -0.53124 8.31179 0.423598L69.9239 26.3172L71.3685 22.8798C77.241 8.90667 88.0982 0.812204 100 0.812207C111.902 0.812209 122.759 8.90668 128.631 22.8798L130.076 26.3172L191.688 0.423597C193.96 -0.531246 196.516 0.183635 197.989 2.01052C199.816 3.48389 200.531 6.03977 199.576 8.31177L173.683 69.9239L177.12 71.3686C191.093 77.241 199.188 88.0983 199.188 100C199.188 111.902 191.093 122.759 177.12 128.631L173.683 130.076L199.576 191.688C200.531 193.96 199.816 196.516 197.989 197.989C196.516 199.816 193.96 200.531 191.688 199.576L130.076 173.683L128.631 177.12C122.759 191.093 111.902 199.188 100 199.188C88.0982 199.188 77.241 191.093 71.3685 177.12L69.9239 173.683L8.31179 199.576C6.03982 200.531 3.48396 199.816 2.01058 197.989C0.183647 196.516 -0.531255 193.96 0.423596 191.688L26.3173 130.076L22.8798 128.631C8.90667 122.759 0.812203 111.902 0.812205 100ZM79.8901 169.494L81.3348 172.932C85.9727 183.967 93.5086 188.377 100 188.377C106.491 188.377 114.027 183.967 118.665 172.932L120.11 169.494L100 161.043L79.8901 169.494ZM134.265 163.716L185.067 185.067L163.716 134.265L142.98 142.98L134.265 163.716ZM128.738 148.965L124.298 159.528L113.951 155.179L128.738 148.965ZM148.965 128.738L159.528 124.298L155.179 113.951L148.965 128.738ZM149.316 100L134.723 134.723L100 149.316L65.2769 134.723L50.6839 100L65.2769 65.2769L100 50.6839L134.723 65.2769L149.316 100ZM161.043 100L169.494 120.11L172.932 118.665C183.967 114.027 188.377 106.491 188.377 100C188.377 93.5086 183.967 85.9727 172.932 81.3348L169.494 79.8902L161.043 100ZM159.528 75.7016L155.179 86.0487L148.965 71.2624L159.528 75.7016ZM163.716 65.7354L185.067 14.9328L134.265 36.2835L142.98 57.0203L163.716 65.7354ZM44.8206 86.0487L51.0348 71.2624L40.472 75.7016L44.8206 86.0487ZM30.5058 79.8901L38.9573 100L30.5058 120.11L27.0683 118.665C16.0327 114.027 11.6229 106.491 11.6229 100C11.6229 93.5086 16.0327 85.9727 27.0683 81.3348L30.5058 79.8901ZM36.2835 65.7354L57.0203 57.0203L65.7354 36.2835L14.9328 14.9328L36.2835 65.7354ZM44.8206 113.951L51.0348 128.738L40.472 124.298L44.8206 113.951ZM57.0203 142.98L36.2835 134.265L14.9328 185.067L65.7354 163.716L57.0203 142.98ZM71.2624 148.965L75.7016 159.528L86.0487 155.179L71.2624 148.965ZM71.2624 51.0348L86.0487 44.8206L75.7016 40.472L71.2624 51.0348ZM128.738 51.0348L113.951 44.8206L124.298 40.472L128.738 51.0348ZM100 38.9573L120.11 30.5058L118.665 27.0683C114.027 16.0327 106.491 11.6229 100 11.6229C93.5086 11.6229 85.9727 16.0327 81.3348 27.0683L79.8902 30.5058L100 38.9573Z" fill="url(#paint0_linear_1585_5745)"/>
<defs>
<linearGradient id="paint0_linear_1585_5745" x1="0" y1="0" x2="216.007" y2="180.885" gradientUnits="userSpaceOnUse">
<stop stop-color="#00EE6E"/>
<stop offset="1" stop-color="#0C63E6"/>
</linearGradient>
</defs>
</svg>
