<svg width="800" height="178" viewBox="0 0 800 178" fill="none" xmlns="http://www.w3.org/2000/svg">
<path d="M439.81 0.00151589C463.533 -0.0619344 490.253 1.86162 521.351 6.68885C525.021 7.20647 560.385 27.5414 569.919 41.5765C579.453 55.6123 582.715 82.3291 582.715 82.3291C585.289 93.2701 583.725 111.354 583.007 113.112C582.038 116.92 576.564 120.115 567.161 122.425C566.065 104.845 551.613 91.1462 534.138 91.1245C515.842 91.1245 501.011 106.077 501.011 124.519C501.022 125.992 501.131 127.462 501.335 128.921C500.847 128.927 500.292 128.941 499.828 128.946L301.67 130.607C302.046 128.6 302.238 126.562 302.244 124.519C302.244 106.077 287.412 91.1245 269.117 91.1245C250.821 91.1245 235.989 106.077 235.989 124.519C235.989 126.747 236.21 128.969 236.649 131.152L185.147 131.583C184.055 112.538 179.465 92.5362 190.964 75.8805C195.483 69.3351 217.408 57.4816 272.98 48.6136C301.691 34.0785 329.713 17.5981 360.229 8.15404C383.758 3.44954 409.308 0.0824985 439.81 0.00151589ZM454.052 10.0066C449.085 10.0434 444.528 10.2487 440.79 10.6829L434.755 51.0506C469.066 46.7986 504.03 42.9832 522.513 28.0916C522.223 23.4998 515.92 16.8526 508.843 14.3112C504.834 12.8719 475.577 9.848 454.051 10.0066H454.052ZM425.376 10.2972C404.662 10.5176 374.002 12.543 352.908 21.9353C342.802 26.6523 323.777 37.6926 311.054 47.4406L316.313 56.236C350.853 54.6664 396.886 52.727 415.778 50.5756L425.377 10.2972H425.376ZM534.138 104.482C539.41 104.482 544.465 106.593 548.193 110.351C551.921 114.109 554.015 119.205 554.015 124.519C554.015 129.833 551.921 134.93 548.193 138.688C544.465 142.445 539.41 144.556 534.138 144.556C528.867 144.556 523.811 142.445 520.083 138.688C516.356 134.93 514.262 129.833 514.262 124.519C514.262 119.205 516.356 114.109 520.083 110.351C523.811 106.593 528.867 104.482 534.138 104.482ZM269.118 104.482C274.389 104.482 279.445 106.593 283.173 110.351C286.9 114.109 288.994 119.205 288.994 124.519C288.994 129.833 286.9 134.93 283.173 138.688C279.445 142.445 274.389 144.556 269.118 144.556C263.846 144.556 258.79 142.445 255.063 138.688C251.335 134.93 249.241 129.833 249.241 124.519C249.241 119.205 251.335 114.109 255.063 110.351C258.79 106.593 263.846 104.482 269.118 104.482Z" fill="#F48F00"/>
<path d="M640.975 177.903C632.433 177.903 624.274 176.918 616.499 174.947C608.833 172.975 602.262 170.073 596.786 166.24L608.121 144.393C611.844 147.349 616.444 149.649 621.92 151.292C627.505 153.044 632.926 153.92 638.182 153.92C646.615 153.92 652.693 152.058 656.416 148.335C660.139 144.721 662.001 139.41 662.001 132.401V121.888L663.644 96.919L663.479 71.7859V55.5233H693.212V128.294C693.212 145.159 688.667 157.643 679.578 165.747C670.488 173.852 657.621 177.903 640.975 177.903ZM635.554 139.957C627.669 139.957 620.386 138.205 613.706 134.701C607.135 131.087 601.824 126.104 597.772 119.752C593.83 113.291 591.858 105.68 591.858 96.919C591.858 88.1579 593.83 80.6017 597.772 74.2499C601.824 67.7887 607.135 62.8059 613.706 59.3015C620.386 55.7971 627.669 54.0449 635.554 54.0449C643.11 54.0449 649.571 55.5781 654.937 58.6444C660.303 61.6013 664.356 66.2556 667.093 72.6073C669.941 78.959 671.364 87.0629 671.364 96.919C671.364 106.775 669.941 114.879 667.093 121.231C664.356 127.582 660.303 132.292 654.937 135.358C649.571 138.424 643.11 139.957 635.554 139.957ZM642.946 115.153C646.669 115.153 649.955 114.386 652.802 112.853C655.759 111.32 658.059 109.184 659.701 106.447C661.453 103.709 662.33 100.533 662.33 96.919C662.33 93.3051 661.453 90.1291 659.701 87.3914C658.059 84.6537 655.759 82.5729 652.802 81.1492C649.955 79.616 646.669 78.8495 642.946 78.8495C639.223 78.8495 635.882 79.616 632.926 81.1492C629.969 82.5729 627.614 84.6537 625.862 87.3914C624.219 90.1291 623.398 93.3051 623.398 96.919C623.398 100.533 624.219 103.709 625.862 106.447C627.614 109.184 629.969 111.32 632.926 112.853C635.882 114.386 639.223 115.153 642.946 115.153ZM749.733 146.035C739.987 146.035 731.335 144.064 723.779 140.122C716.222 136.179 710.254 130.758 705.874 123.859C701.603 116.85 699.467 108.856 699.467 99.8758C699.467 90.8959 701.603 82.9562 705.874 76.0569C710.254 69.1576 716.222 63.7915 723.779 59.9586C731.335 56.0161 739.987 54.0449 749.733 54.0449C759.48 54.0449 768.131 56.0161 775.688 59.9586C783.353 63.7915 789.322 69.1576 793.593 76.0569C797.864 82.9562 799.999 90.8959 799.999 99.8758C799.999 108.856 797.864 116.85 793.593 123.859C789.322 130.758 783.353 136.179 775.688 140.122C768.131 144.064 759.48 146.035 749.733 146.035ZM749.733 121.231C753.347 121.231 756.523 120.409 759.261 118.767C762.108 117.124 764.353 114.715 765.996 111.539C767.638 108.254 768.46 104.366 768.46 99.8758C768.46 95.3857 767.638 91.6075 765.996 88.5413C764.353 85.3653 762.108 82.9562 759.261 81.3135C756.523 79.6708 753.347 78.8495 749.733 78.8495C746.229 78.8495 743.053 79.6708 740.206 81.3135C737.468 82.9562 735.223 85.3653 733.471 88.5413C731.828 91.6075 731.007 95.3857 731.007 99.8758C731.007 104.366 731.828 108.254 733.471 111.539C735.223 114.715 737.468 117.124 740.206 118.767C743.053 120.409 746.229 121.231 749.733 121.231Z" fill="#C94A30"/>
<path d="M49.1163 146.034C37.7269 146.034 28.8565 143.242 22.5048 137.656C16.1531 131.962 12.9772 123.42 12.9772 112.031V35.6457H44.1882V111.702C44.1882 114.878 45.0644 117.397 46.8165 119.258C48.5686 121.01 50.8138 121.887 53.5515 121.887C57.2748 121.887 60.4508 120.956 63.0791 119.094L70.7997 140.942C68.1714 142.694 64.9409 143.954 61.1079 144.72C57.2748 145.596 53.2779 146.034 49.1163 146.034ZM0 82.1337V58.8076H64.5575V82.1337H0ZM74.6216 144.556V55.5222H104.354V81.4766L99.9189 74.0846C102.547 67.4044 106.818 62.4215 112.732 59.1361C118.646 55.7414 125.818 54.0438 134.251 54.0438V82.1337C132.827 81.9146 131.568 81.8052 130.473 81.8052C129.487 81.6958 128.392 81.6409 127.188 81.6409C120.836 81.6409 115.689 83.393 111.746 86.8975C107.804 90.2923 105.833 95.8774 105.833 103.653V144.556H74.6216ZM138.917 144.556V55.5222H170.128V144.556H138.917ZM154.523 45.6661C148.828 45.6661 144.229 44.0782 140.724 40.9023C137.22 37.7265 135.468 33.784 135.468 29.075C135.468 24.366 137.22 20.4235 140.724 17.2477C144.229 14.0718 148.828 12.4839 154.523 12.4839C160.217 12.4839 164.817 14.0171 168.321 17.0834C171.826 20.0402 173.578 23.8732 173.578 28.5822C173.578 33.5103 171.826 37.617 168.321 40.9023C164.927 44.0782 160.327 45.6661 154.523 45.6661Z" fill="#007FAD"/>
</svg>
