<svg width="1257" height="302" viewBox="0 0 1257 302" fill="none" stroke="#111827"
  xmlns="http://www.w3.org/2000/svg">
  <path
    d="M72.5201 276.571L72.5199 276.571C60.5798 282.844 47.094 282.096 36.5777 276.571C26.1043 271.069 20.0034 261.758 20.0034 251.293V50.7064C20.0034 40.2419 26.1042 30.9311 36.5776 25.429C47.094 19.9042 60.58 19.1562 72.5201 25.429L263.429 125.722C285.528 137.332 285.528 164.668 263.429 176.277L72.5201 276.571Z"
    stroke-width="40" />
  <path
    d="M393.122 21H544.878C574.769 21 599 45.2313 599 75.1223V226.878C599 256.769 574.769 281 544.878 281H393.122C363.231 281 339 256.769 339 226.878V75.1223C339 45.2313 363.231 21 393.122 21Z"
    stroke-width="40" />
  <path d="M656.987 280.991V44.958C656.987 22.8065 681.814 9.76484 701.676 34.1064L873.483 267.088"
    stroke-width="40" stroke-linecap="round" />
  <path d="M918.697 21.0085V257.042C918.697 279.194 893.869 292.235 874.007 267.894L702.201 34.9178"
    stroke-width="40" stroke-linecap="round" />
  <path
    d="M1237 86.7452C1237 51.5397 1208.46 23 1173.26 23H1042.74C1007.54 23 979 51.5397 979 86.7452V217.255C979 252.461 1007.54 281 1042.74 281H1173.26C1208.46 281 1237 252.461 1237 217.255V152H1110.58"
    stroke-width="40" stroke-linecap="round" />
</svg>